<?xml version="1.0" encoding="utf-8"?>
<!-- Generator: Adobe Illustrator 16.0.0, SVG Export Plug-In . SVG Version: 6.00 Build 0)  -->
<!DOCTYPE svg PUBLIC "-//W3C//DTD SVG 1.1//EN" "http://www.w3.org/Graphics/SVG/1.1/DTD/svg11.dtd">
<svg version="1.1" id="Layer_1" xmlns="http://www.w3.org/2000/svg" xmlns:xlink="http://www.w3.org/1999/xlink" x="0px" y="0px"
	 width="576px" height="549.267px" viewBox="0 0 576 549.267" enable-background="new 0 0 576 549.267" xml:space="preserve">
<g>
	<path fill="#A31E22" d="M480.406,480.227H480.4c-0.013,0-0.013,0.007-0.024,0.007L480.406,480.227z M0.302,177.261
		c-0.006-0.099-0.019-0.204-0.031-0.302v-0.049L0.302,177.261z M555.771,114.121C543.577,99.293,525.95,87.678,504.5,83.8
		c-5.186-15.728-13.675-29.865-24.311-41.715C462.131,22.047,436.854,7.423,407.1,4.168c-14.834-1.523-33.022-2.491-53.738-3.169
		C332.696,0.333,309.767,0,286.807,0c-22.954,0-45.901,0.333-66.555,0.999c-20.716,0.678-38.91,1.646-53.571,3.156l-0.154,0.013
		c-29.772,3.255-55.051,17.873-73.115,37.917C82.659,54.064,74.108,68.374,68.935,84.299c-20.284,4.316-36.992,15.58-48.707,29.822
		C7.781,129.325,0.068,148.647,0,170.127c0,2.109,0.074,4.39,0.271,6.832l0.012,0.037c11.055,138.29,6.486,82.875,17.411,219.562
		c2.003,22.756,11.917,41.043,25.093,55.199c13.33,14.025,30.889,24.92,53.158,28.533l0.518,0.067l-0.333-0.043
		c2.626,0.395,4.803,0.771,6.85,1.146c7.01,13.459,16.32,25.574,27.535,35.938c20.235,18.668,48.195,31.862,79.786,31.868H366.18
		c31.616,0,59.606-13.212,79.854-31.918c11.222-10.383,20.524-22.51,27.541-35.987c1.874-0.346,3.896-0.678,6.301-1.048l0.432-0.068
		c-0.086,0.013-0.166,0.024-0.246,0.044l0.271-0.044l0.044-0.012c-0.013,0-0.019,0-0.031,0.006l0.056-0.013
		c22.108-3.662,39.545-14.52,52.813-28.471c13.163-14.145,23.096-32.431,25.1-55.199c10.918-136.687,6.356-81.271,17.41-219.562
		c0.191-2.392,0.278-4.673,0.278-6.862C575.926,148.647,568.219,129.331,555.771,114.121z"/>
	<g>
		<path fill="#E7E4C8" d="M142.125,399.701h77.566c2.059,0,3.397-1.399,3.397-3.435v-3.261v-23.41v-1.363
			c0-2.059,1.369-3.396,3.397-3.396l122.599,0.056v0.056h0.487c2.04,0,3.396,1.355,3.396,3.402v0.044v28.034
			c0.136,1.861,1.431,3.15,3.348,3.15l77.567,0.123c2.047,0,3.396-1.399,3.396-3.435v-3.261v-92.992
			c0-117.235-66.956-183.285-149.264-183.285c-82.326,0-149.288,66.049-149.288,183.285v92.992v3.261
			C138.727,398.302,140.102,399.701,142.125,399.701z M223.088,297.941v-23.064c0-42.745,29.113-77.486,64.927-77.486
			c35.79,0,64.915,34.742,64.915,77.486l0.037,23.188c0,2.022-1.356,3.435-3.396,3.435H227.052v-0.13h-0.567
			c-1.936,0-3.268-1.313-3.36-3.218h-0.037V297.941z"/>
	</g>
	<path fill="#DDC35E" d="M533.441,132.5c-8.435-10.259-20.531-18.027-34.915-20.389l-0.099-0.019
		c-6.961-1.11-11.394-2.115-16.684-3.286c-0.382-0.086-0.765-0.167-1.152-0.259c-2.257-17.941-10.327-34.254-21.894-47.128
		c-13.718-15.247-32.806-26.135-54.662-28.497c-26.808-2.743-71.777-3.982-117.229-4.007c-45.458,0.025-90.428,1.264-117.154,4.007
		c-21.931,2.361-41.019,13.25-54.743,28.497c-11.671,12.991-19.778,29.464-21.949,47.597c-0.006,0-0.006,0-0.019,0
		c-4.877,1.116-8.841,2.047-15.382,3.077C63.09,114.473,51,122.241,42.566,132.5c-8.447,10.271-13.625,23.385-13.65,37.633
		c0,1.467,0.049,3.034,0.191,4.68c11.054,138.208,6.486,82.807,17.417,219.444c1.264,14.901,8.009,27.714,17.325,37.689
		c9.39,9.913,21.776,17.417,36.511,19.76c7.257,1.098,11.942,2.103,17.405,3.268c1.757,0.364,3.595,0.759,5.555,1.153
		c5.629,15.296,14.853,29.008,26.745,39.964c15.74,14.488,36.808,24.254,60.236,24.254H366.18c23.459,0,44.538-9.771,60.291-24.285
		c11.899-10.975,21.123-24.704,26.733-40.025c1.874-0.382,3.625-0.753,5.302-1.11c5.376-1.141,9.964-2.127,17.054-3.199
		c14.821-2.361,27.208-9.865,36.592-19.778c9.315-9.976,16.066-22.788,17.337-37.689c10.925-136.649,6.356-81.235,17.417-219.561
		c0.129-1.579,0.179-3.083,0.179-4.563C547.06,155.885,541.875,142.777,533.441,132.5z M524.495,172.896
		c-1.122,14.051-2.084,26.073-2.916,36.53h-74.94c2.966,8.25,5.53,16.85,7.627,25.821h65.254
		c-3.329,41.918-3.841,48.879-6.578,83.553h-51.573v25.827h49.52c-1.011,12.787-2.256,28.354-3.816,47.831
		c-1.405,17.596-17.097,34.285-34.858,37.029c-15.476,2.336-21.308,4.599-36.776,6.807c-6.351,33.139-35.044,61.579-69.256,61.579
		H210.307c-34.15,0-62.85-28.403-69.231-61.499c-15.642-2.238-21.641-4.532-37.282-6.887c-17.769-2.744-33.453-19.434-34.859-37.029
		c-1.554-19.477-2.793-35.044-3.81-47.831h49.501v-25.827H63.066c-2.738-34.674-3.25-41.635-6.579-83.553h65.248
		c2.09-8.971,4.661-17.571,7.633-25.821h-74.94c-0.833-10.457-1.794-22.479-2.917-36.53c-1.467-18.274,11.832-35.704,29.569-38.583
		c14.471-2.293,19.304-4.488,33.787-6.665c-0.006-2.94-0.012-5.906-0.012-8.97c0-31.394,25.679-60.051,57.116-63.392
		c50.014-5.173,179.666-5.173,229.685,0c31.406,3.341,57.104,31.998,57.104,63.392c0,2.935-0.006,5.783-0.006,8.601
		c15.277,2.3,20.906,4.618,36.166,7.035l0,0C512.669,137.192,525.956,154.627,524.495,172.896z"/>
</g>
</svg>
